<svg xmlns="http://www.w3.org/2000/svg" version="1.1" xmlns:xlink="http://www.w3.org/1999/xlink" xmlns:svgjs="http://svgjs.dev/svgjs" width="1440" height="560" preserveAspectRatio="none" viewBox="0 0 1440 560"><g mask="url(&quot;#SvgjsMask1849&quot;)" fill="none"><rect width="1440" height="560" x="0" y="0" fill="url(&quot;#SvgjsLinearGradient1850&quot;)"></rect><path d="M1464 560L0 560 L0 278.21Q66.25 224.46, 120 290.71Q137.99 236.69, 192 254.68Q276.03 218.71, 312 302.73Q331.36 250.09, 384 269.44Q393.82 207.26, 456 217.08Q490.14 179.23, 528 213.37Q579.04 192.41, 600 243.45Q656.06 227.5, 672 283.56Q727.13 266.69, 744 321.82Q754.54 260.36, 816 270.89Q890.12 225, 936 299.12Q981.35 272.47, 1008 317.82Q1028.4 266.22, 1080 286.62Q1122.55 209.17, 1200 251.71Q1241.31 221.01, 1272 262.32Q1338.5 208.81, 1392 275.31Q1393.31 204.62, 1464 205.92z" fill="rgba(253, 249, 242, 1)"></path><path d="M1536 560L0 560 L0 370.94Q36.12 287.06, 120 323.18Q170.81 302, 192 352.81Q262.41 303.22, 312 373.63Q352.35 293.98, 432 334.33Q477.44 259.77, 552 305.21Q640.18 273.39, 672 361.57Q758.17 327.74, 792 413.91Q798.48 300.39, 912 306.87Q980.59 255.46, 1032 324.04Q1135.81 307.85, 1152 411.66Q1198.42 338.08, 1272 384.5Q1314.98 355.49, 1344 398.47Q1367.67 350.14, 1416 373.82Q1465.62 303.44, 1536 353.05z" fill="rgba(213, 176, 141, 0.2)"></path><path d="M1536 560L0 560 L0 428.1Q66.9 423, 72 489.91Q94.13 440.05, 144 462.18Q189.85 388.03, 264 433.88Q293.39 391.27, 336 420.67Q356.45 369.13, 408 389.58Q477.25 338.83, 528 408.09Q599.53 359.62, 648 431.14Q727 390.14, 768 469.14Q840.87 422, 888 494.87Q903.11 389.98, 1008 405.08Q1076.05 353.13, 1128 421.18Q1147.62 368.8, 1200 388.41Q1243.39 359.81, 1272 403.2Q1346.36 405.56, 1344 479.91Q1333.61 397.51, 1416 387.12Q1478.67 329.8, 1536 392.47z" fill="rgba(213, 176, 141, 0.4)"></path><path d="M1512 560L0 560 L0 530.27Q70.15 480.42, 120 550.57Q192.89 503.46, 240 576.35Q294.96 511.31, 360 566.26Q386.68 520.94, 432 547.62Q440.94 484.56, 504 493.5Q531.44 448.94, 576 476.37Q626.76 455.13, 648 505.89Q721.72 507.61, 720 581.32Q786.12 527.44, 840 593.56Q862.18 543.74, 912 565.92Q935.08 517, 984 540.08Q993.22 477.3, 1056 486.52Q1086.11 444.63, 1128 474.73Q1194.67 469.41, 1200 536.08Q1245 461.08, 1320 506.08Q1346.03 460.11, 1392 486.13Q1472.04 446.17, 1512 526.21z" fill="rgba(186, 115, 56, 1)"></path></g><defs><mask id="SvgjsMask1849"><rect width="1440" height="560" fill="#ffffff"></rect></mask><linearGradient x1="50%" y1="0%" x2="50%" y2="100%" gradientUnits="userSpaceOnUse" id="SvgjsLinearGradient1850"><stop stop-color="rgba(255, 255, 255, 1)" offset="0"></stop><stop stop-color="rgba(253, 249, 242, 0.52)" offset="1"></stop></linearGradient></defs></svg>